<!-- Maskable: inset ~80% safe zone -->
<svg xmlns="http://www.w3.org/2000/svg" width="512" height="512" viewBox="0 0 512 512" role="img" aria-label="起势">
  <defs>
    <linearGradient id="pwaMaskFace" x1="0" y1="0" x2="0" y2="1">
      <stop stop-color="#5eb8ff"/>
      <stop offset="1" stop-color="#1566d6"/>
    </linearGradient>
  </defs>
  <rect width="512" height="512" fill="#1566d6"/>
  <g transform="translate(51.2 51.2) scale(5.12)">
    <rect width="80" height="80" rx="17" fill="url(#pwaMaskFace)"/>
    <path
      fill="#0a0a0a"
      d="
        M 58 18
        C 68 26 70 42 62 52
        C 54 62 38 64 26 56
        C 14 48 12 32 22 22
        C 30 14 46 12 58 18
        Z
      "
    />
    <path fill="#0a0a0a" d="M 22 38 L 12 44 L 18 52 Z"/>
    <circle cx="52" cy="28" r="2.8" fill="#ffffff"/>
    <circle cx="52.7" cy="27.4" r="0.95" fill="#0a0a0a"/>
    <path
      fill="none"
      stroke="#ffffff"
      stroke-width="2.5"
      stroke-linecap="round"
      stroke-linejoin="round"
      d="
        M 56 48
        C 62 52 64 58 60 64
        C 56 68 50 66 48 60
      "
    />
    <path
      fill="none"
      stroke="#ffffff"
      stroke-width="2"
      stroke-linecap="round"
      d="M 60 64 L 62 70"
    />
  </g>
</svg>
